# xmcd
#
# Track frame offsets: 
#        150
#        39140
#        60947
#        82920
#        98954
#        122140
#        150988
#        160916
#        205787
#        224334
#        249047
#        272712
#
# Disc length: 3895 seconds
#
# Revision: 2
# Processed by: cddbd v1.5.2PL0 Copyright (c) Steve Scherf et al.
# Submitted via: ExactAudioCopyFreeDBPlugin 1.0
#
DISCID=8c0f350c
DTITLE=Moe, Eric - Strange Exclaiming Music
DYEAR=2009
DGENRE=Classical
TTITLE0=Strange Exclaiming Music (2004) for violin and piano - I. Rhym
TTITLE0=e Does Not Play
TTITLE1=Strange Exclaiming Music (2004) for violin and piano - II. Cut
TTITLE1=Time
TTITLE2=Strange Exclaiming Music (2004) for violin and piano - III. Th
TTITLE2=e Sorbet of Regret
TTITLE3=Teeth of the Sea (2003) for two conga drums
TTITLE4=Rough Winds Do Shake the Darling Buds (1999) for Saxophone tri
TTITLE4=o - I. Energetic
TTITLE5=Rough Winds Do Shake the Darling Buds (1999) for Saxophone tri
TTITLE5=o - II. Raucous, obsessive.
TTITLE6=Down the stream, merrily (2002) for two marimbas
TTITLE7=I Have Only One Itching Desire (2006) for six percussionists
TTITLE8=Flex Time (2006) for violin solo
TTITLE9=Market Forces (2005) for saxophone quartet - I. Volatility
TTITLE10=Market Forces (2005) for saxophone quartet - II. The Sad Stor
TTITLE10=y of the Prodigal Princesse
TTITLE11=Market Forces (2005) for saxophone quartet - III. Bottom Line
EXTD=YEAR: 2009
EXTT0=
EXTT1=
EXTT2=
EXTT3=
EXTT4=
EXTT5=
EXTT6=
EXTT7=
EXTT8=
EXTT9=
EXTT10=
EXTT11=
PLAYORDER=
